# xmcd
#
# Track frame offsets:
# 183
# 11778
# 23388
# 36905
# 51923
# 69028
# 80785
# 95790
# 115858
# 129590
# 149465
# 164698
# 177373
#
# Disc length: 2522 seconds
#
#
# Revision: 3
# Processed by: cddbd v1.5.2PL0 Copyright (c) Steve Scherf et al.
# Submitted via: FreeRIP 2.951 
#
DISCID=b309d80d
DTITLE=Texana Dames - Texana Dames
DYEAR=1989
DGENRE=Blues
TTITLE0=Gotta Get Up and Go
TTITLE1=Quiero Ser Solo Tuya
TTITLE2=Mind Your Own Business
TTITLE3=You Don't Know (How Much I Love You)
TTITLE4=Same Taste In Men
TTITLE5=On The Edge Of Town
TTITLE6=The Mall Parade
TTITLE7=Arriba Nuevo Mexico
TTITLE8=Busy Body
TTITLE9=Blue Light Boogie
TTITLE10=Save My Love For Rainy Days
TTITLE11=Why Baby Why
TTITLE12=Rock and Roll Like We Used To
EXTD=ID3G:   0
EXTT0=
EXTT1=
EXTT2=
EXTT3=
EXTT4=
EXTT5=
EXTT6=
EXTT7=
EXTT8=
EXTT9=
EXTT10=
EXTT11=
EXTT12=
PLAYORDER=
